<svg width="8" height="9" viewBox="0 0 8 9" fill="none" xmlns="http://www.w3.org/2000/svg">
<path d="M7.02282 1.44531H0.977183C0.438388 1.44531 0 1.9385 0 2.54464V6.45595C0 7.06209 0.438388 7.55528 0.977183 7.55528H7.02282C7.56161 7.55528 8 7.06209 8 6.45595V2.54476C8.0001 1.9385 7.56172 1.44531 7.02282 1.44531ZM6.54533 2.1625L4 4.00735L1.45467 2.1625H6.54533ZM7.02282 6.83821H0.977183C0.789864 6.83821 0.637501 6.66668 0.637501 6.45607V2.56508L3.80333 4.85531C3.80758 4.85829 3.81215 4.86033 3.81651 4.86307C3.82107 4.86594 3.82575 4.86869 3.83042 4.87132C3.85497 4.88555 3.88026 4.89702 3.90607 4.90455C3.90873 4.90539 3.91139 4.90575 3.91404 4.90646C3.94241 4.914 3.9711 4.91866 3.99979 4.91866H4C4.00021 4.91866 4.00042 4.91866 4.00042 4.91866C4.02911 4.91866 4.0578 4.91411 4.08617 4.90646C4.08882 4.90575 4.09148 4.90539 4.09414 4.90455C4.11996 4.89702 4.14514 4.88555 4.16979 4.87132C4.17446 4.86869 4.17914 4.86594 4.18371 4.86307C4.18806 4.86033 4.19263 4.85829 4.19688 4.85531L7.36271 2.56508V6.45595C7.3626 6.66668 7.21014 6.83821 7.02282 6.83821Z" fill="black"/>
</svg>
