<svg width="120" height="60" viewBox="0 0 120 60" fill="none" xmlns="http://www.w3.org/2000/svg">
<path d="M0 24.3666L5.40906 19.2532C7.07339 21.3999 9.46586 21.751 10.7016 21.751C12.4783 21.751 13.791 21.0887 14.0615 19.8398C14.3319 18.5109 12.7487 18.122 10.6621 17.6909C4.94721 16.3642 3.74889 13.4375 4.4063 9.84629C5.33208 5.0104 10.9721 1.84394 15.9921 1.84394C19.8929 1.84394 22.9074 3.17066 25.1854 4.99779L19.9324 10.1112C19.3709 9.53991 18.7028 9.08699 17.9667 8.77875C17.2307 8.47051 16.4414 8.31309 15.6447 8.31563C14.2924 8.31563 12.9797 8.97793 12.7092 10.0713C12.4783 10.9691 13.0192 11.4779 16.0379 12.1738C20.44 13.305 23.492 15.6872 22.5641 20.3738C21.5613 25.6828 15.7674 28.2206 10.7848 28.2206C6.79253 28.2311 2.93546 27.4048 0 24.3666ZM28.3102 9.01788H35.6873L32.0965 27.5583H24.7194L28.3102 9.01788ZM29.1985 3.74886C29.5855 1.6463 31.6326 0 33.7567 0C35.8808 0 37.2705 1.63999 36.8773 3.74886C36.4987 5.78624 34.462 7.43045 32.3275 7.43045C30.193 7.43045 28.7741 5.78625 29.1985 3.75728V3.74886ZM54.9956 9.36901L52.0206 15.1469C51.4936 14.8798 50.9104 14.7456 50.3209 14.7558C47.6954 14.7558 45.6858 17.0202 45.1074 20.0248L45.2239 19.2447L43.6386 27.5583H36.1887L39.742 9.01788H46.3078L46.7239 11.009C47.8827 9.87573 49.5033 8.54901 51.6669 8.54901C52.827 8.55531 53.9691 8.83919 54.9997 9.37742L54.9956 9.36901ZM74.5764 14.7558C74.4994 17.4891 72.3732 20.4159 64.8817 20.4159H61.2992C61.2992 22.2598 62.0274 23.1997 63.7957 23.1997C65.3415 23.1997 66.3837 22.5689 67.3095 21.6396L71.7512 25.893C69.5127 27.4552 67.1556 28.2353 63.7957 28.2353C56.5725 28.2353 52.7487 24.0596 53.9075 18.0484C55.0663 12.3084 60.3194 8.56163 66.5772 8.56163C71.2207 8.55742 74.695 10.8597 74.5806 14.7642L74.5764 14.7558ZM67.8588 14.9997C67.8588 14.1019 66.8185 13.7507 65.9281 13.7507C64.3824 13.7507 62.9157 14.5329 62.0669 16.6018H64.8858C66.856 16.5997 67.8588 15.7797 67.8588 14.9997ZM96.4394 15.7818L94.1697 27.5667H86.7447L88.5214 18.0042C88.9374 15.7398 88.6004 14.8504 87.1316 14.8504C85.9729 14.8504 84.6601 15.7482 83.9653 18.0526L82.1491 27.5751H74.7345L78.2878 9.03471H84.8078L85.2239 10.6348C87.0401 9.26809 88.8937 8.56583 91.0178 8.56583C94.1218 8.55742 97.4837 10.4308 96.4394 15.7797V15.7818ZM120 9.06624L116.407 27.5688H110.305L110.074 26.3998C108.449 27.5988 106.486 28.2412 104.474 28.2332C99.7993 28.2332 96.9845 24.7598 98.2556 18.6308C99.6453 12.2285 104.124 8.55952 108.993 8.55952C110.963 8.55952 112.352 9.14614 113.318 10.0818L113.942 9.06624H120ZM108.452 21.9886C109.995 21.9886 111.618 20.6997 112.042 18.6245C112.546 16.2822 111.348 14.8399 109.571 14.8399C107.948 14.8399 106.405 16.0888 105.941 18.204C105.477 20.5021 106.635 21.9865 108.452 21.9865V21.9886Z" fill="white"/>
<path d="M30.2516 48.9993L2.52051 47.6609L30.15 46.4661L30.2516 48.9993ZM29.9031 40.3359L7.29344 41.3076L30.0027 42.8627L29.9031 40.3359ZM29.8699 52.9353L7.26025 53.9069L29.9695 55.462L29.8699 52.9353Z" fill="white"/>
<path d="M79.4151 51.4034C78.7365 54.952 75.4941 56.9476 72.3097 57.4172L71.8089 59.9998H68.6266L69.0984 57.446C66.8223 57.2401 64.8235 56.5378 63.0254 54.8057L67.2734 50.6682C68.5418 52.2828 69.7791 52.635 71.0475 52.635C71.7841 52.635 72.8166 52.3405 72.9925 51.4323C73.1394 50.7856 73.0215 50.2583 70.7516 49.6426C66.8906 48.6128 66.125 46.473 66.6547 43.8038C67.2444 40.7825 69.986 38.6407 72.9346 37.8766L73.4353 35.2939H76.6176L76.1707 37.6418C78.2031 37.793 80.1337 38.5868 81.6809 39.9073L77.5839 43.8677C76.5225 42.8997 75.7569 42.426 74.5775 42.426C73.8698 42.426 73.0442 42.8668 72.8973 43.6617C72.7504 44.4567 73.1622 44.8336 75.0782 45.4206C77.675 46.1805 80.1021 47.9105 79.4151 51.4034Z" fill="#FEE052"/>
<path d="M23.8932 47.63C24.9346 41.9963 30.1416 38.164 35.7422 38.164C38.9851 38.164 40.7597 38.892 42.5738 40.1949L37.5563 45.6383C37.0939 44.7945 36.0984 44.4884 35.3569 44.4884C33.4261 44.4884 31.8432 45.7521 31.3808 48.0519C30.9643 50.0456 31.9598 51.1541 33.6969 51.1541C34.6237 51.1541 35.7797 50.6557 36.6295 49.8512L39.6412 55.5614C37.4397 56.8271 35.3569 57.4785 32.3847 57.4785C26.5571 57.4703 22.7747 53.4849 23.8932 47.63ZM63.6454 38.6521L60.0547 56.8188H53.9583L53.7271 55.6689C52.1026 56.8476 50.1406 57.4789 48.1286 57.4703C43.459 57.4703 40.643 54.0578 41.9156 48.0415C43.3048 41.7564 47.7828 38.1537 52.6462 38.1537C54.6144 38.1537 56.0036 38.7286 56.968 39.6489L57.5928 38.6521H63.6454ZM52.1046 51.3382C53.648 51.3382 55.2705 50.0725 55.6954 48.0415C56.1973 45.7417 54.9997 44.3188 53.2252 44.3188C51.6027 44.3188 50.0593 45.5453 49.5969 47.6134C49.1325 49.8822 50.2905 51.3382 52.1046 51.3382ZM102.675 45.2433L100.359 56.825H92.9482L94.7624 47.4232C95.1789 45.1999 94.8394 44.3209 93.3336 44.3209C92.061 44.3209 90.5551 45.4315 89.9761 48.3828L90.0927 47.3487L88.2391 56.8147H80.8285L85.923 30.7559H93.3336L91.482 40.1846C93.2961 38.8444 95.1477 38.1537 97.2326 38.1537C100.359 38.1537 103.677 39.9943 102.675 45.2433Z" fill="white"/>
</svg>
