<svg width="7" height="7" viewBox="0 0 7 7" fill="none" xmlns="http://www.w3.org/2000/svg">
<path d="M5.18009 4.02266C5.16646 4.01612 4.65614 3.76482 4.56546 3.73218C4.52844 3.71889 4.48878 3.70591 4.44659 3.70591C4.37769 3.70591 4.3198 3.74025 4.27471 3.80771C4.22373 3.88348 4.06941 4.06386 4.02173 4.11775C4.0155 4.12486 4.007 4.13337 4.00191 4.13337C3.99734 4.13337 3.91837 4.10084 3.89446 4.09046C3.34703 3.85266 2.9315 3.28082 2.87453 3.18439C2.86639 3.17052 2.86605 3.16423 2.86598 3.16423C2.86798 3.15689 2.88639 3.13843 2.89589 3.12891C2.92369 3.10141 2.9538 3.06516 2.98294 3.03009C2.99673 3.01348 3.01055 2.99684 3.02412 2.98116C3.06639 2.93198 3.08521 2.8938 3.10703 2.84957L3.11846 2.82659C3.17173 2.72075 3.12623 2.63143 3.11153 2.60259C3.09946 2.57846 2.88398 2.05841 2.86107 2.00377C2.80598 1.87193 2.73319 1.81055 2.63203 1.81055C2.62264 1.81055 2.63203 1.81055 2.59266 1.81221C2.54473 1.81423 2.28371 1.84859 2.1683 1.92134C2.04591 1.9985 1.83887 2.24446 1.83887 2.677C1.83887 3.0663 2.08591 3.43387 2.19198 3.57366C2.19462 3.57718 2.19946 3.58434 2.20648 3.59462C2.61269 4.18784 3.11907 4.62748 3.63241 4.83255C4.12662 5.02996 4.36064 5.05277 4.49369 5.05277H4.49371C4.54962 5.05277 4.59437 5.04839 4.63384 5.0445L4.65889 5.04211C4.82962 5.02698 5.2048 4.83257 5.29014 4.59541C5.35737 4.40862 5.37509 4.20452 5.33037 4.13046C5.29973 4.08009 5.24694 4.05475 5.18009 4.02266Z" fill="black"/>
<path d="M3.56213 0C1.66631 0 0.123949 1.53077 0.123949 3.41234C0.123949 4.02091 0.286813 4.61661 0.595336 5.13798L0.0048129 6.87991C-0.00618709 6.91239 0.00199472 6.9483 0.0260174 6.97275C0.0433584 6.99045 0.0668811 7 0.0909038 7C0.100108 7 0.109381 6.99861 0.118427 6.99573L1.93479 6.41855C2.43184 6.68411 2.99361 6.8243 3.56215 6.8243C5.45779 6.82432 6.99999 5.2937 6.99999 3.41234C6.99999 1.53077 5.45779 0 3.56213 0ZM3.56213 6.1135C3.02715 6.1135 2.50899 5.95902 2.06359 5.66675C2.04861 5.65691 2.03122 5.65186 2.01372 5.65186C2.00447 5.65186 1.9952 5.65327 1.98618 5.65614L1.07629 5.94536L1.37002 5.0788C1.37952 5.05075 1.37477 5.01982 1.35727 4.99591C1.01809 4.53245 0.83879 3.98489 0.83879 3.41234C0.83879 1.92273 2.06047 0.710818 3.56211 0.710818C5.06356 0.710818 6.28511 1.92273 6.28511 3.41234C6.28513 4.90177 5.06361 6.1135 3.56213 6.1135Z" fill="black"/>
</svg>
